<?xml version="1.0" encoding="UTF-8"?><svg xmlns="http://www.w3.org/2000/svg" viewBox="0 0 512 512"><defs><style>.h{fill:#9fa2b4;stroke:#375f24;stroke-miterlimit:10;stroke-width:10px;}</style></defs><g id="a"/><g id="b"/><g id="c"/><g id="d"/><g id="e"/><g id="f"><g id="g"/><path class="h" d="M485.7,223.63l-37.86-5.71-129.84-87.54-56.48-38.07c-3.19-2.15-7.35-2.18-10.56-.09l-65.72,42.71L57.53,217.92l-30.71,5.78c-7.26,1.77-11.58-7.84-5.45-12.1l102.59-71.18,61.29-42.53,64.73-44.92c3.82-2.64,8.87-2.64,12.69,0l55.35,38.41,70.66,49.03,102.49,71.1c6.14,4.26,1.82,13.88-5.45,12.1Z"/><path class="h" d="M384.71,175.36V451.82c0,2.55-.56,4.99-1.58,7.18H119.38c-1.02-2.18-1.58-4.62-1.58-7.18V178.76l47.94-31.15,90.53-58.84,87.28,58.84,41.16,27.75Z"/><path class="h" d="M117.8,451.82c0,2.55,.56,4.99,1.58,7.18h-44.63c-9.47,0-17.22-7.75-17.22-17.22V217.92l60.27-39.16V451.82Z"/><path class="h" d="M447.85,217.92v223.86c0,9.47-7.75,17.22-17.22,17.22h-47.5c1.02-2.18,1.58-4.62,1.58-7.18V175.36l63.14,42.56Z"/><path class="h" d="M319.07,132.34v141c0,1.3-.28,2.55-.79,3.66H186.03c-.51-1.11-.79-2.36-.79-3.66V134.08l24.04-15.89,45.4-30.01,43.76,30.01,20.64,14.15Z"/><path class="h" d="M337.35,293.97v158.05c0,2.48-.53,4.84-1.49,6.97H167.86c-.96-2.14-1.49-4.49-1.49-6.97v-158.05c0-9.47,7.75-17.22,17.22-17.22h136.54c9.47,0,17.22,7.75,17.22,17.22Z"/><path class="h" d="M256.62,459l.37-366.39v-3.84s0,245.88-.73,355.7"/></g></svg>