<?xml version="1.0" encoding="UTF-8"?><svg xmlns="http://www.w3.org/2000/svg" viewBox="0 0 512 512"><defs><style>.h{fill:#9fa2b4;}.h,.i{stroke:#fff;stroke-miterlimit:10;stroke-width:10px;}.i{fill:none;}</style></defs><g id="a"/><g id="b"/><g id="c"/><g id="d"/><g id="e"/><g id="f"><g id="g"/><path class="h" d="M386.21,244.81c-15.27,5.62-33.21,13.76-52.29,23.33-15.67,7.87-32.1,16.69-48.42,25.84-26.67,14.95-53.04,30.79-75.33,44.81,.85-15,1.58-31.48,2.07-48.53,.73-25.13,.98-51.57,.42-76.51-.4-17.48-1.2-34.23-2.52-49.32C286.41,90.76,383.73,13.1,419.89,31.36c.74,.37,1.45,.78,2.14,1.23,.58,.38,1.14,.79,1.67,1.23,2.42,1.97,4.42,4.48,6.03,7.49,.97,1.82,1.81,3.8,2.5,5.95v.02c11.71,36.22-14.24,119.78-46.03,197.52Z"/><path class="i" d="M434,56.86c-.66,39.06-65.68,139.6-106.84,212.03-15.06,7.75-30.84,16.44-46.53,25.45-25.63,14.71-50.97,30.3-72.41,44.09,.87-14.68,1.63-30.79,2.16-47.47,.79-24.58,1.13-50.43,.68-74.82C246.47,170.1,376.51,31.41,415.5,29.36"/><path class="h" d="M418.83,48.69c-9.25,34.11-85.15,160.32-138.99,245.87-25.62,14.59-50.96,30.05-72.38,43.72,.85-14.58,1.59-30.59,2.11-47.16,4.23-7.65,8.66-15.07,13.22-22.09,1.48-2.29,2.97-4.51,4.47-6.7,29.54-42.97,155.25-203.19,185.81-220.9,.96-.56,1.82-.98,2.58-1.23,2.55-.9,4-.15,4.13,2.55,.03,.57-.01,1.22-.11,1.94-.13,1.14-.42,2.48-.83,4Z"/><path class="i" d="M304.5,82.36c71.11,18.05,111,82,111,82"/><path class="i" d="M253.5,124.36c83.67,10.44,141,99,141,99"/><path class="i" d="M210.5,164.36c83.67,10.44,131.91,98.68,131.91,98.68"/><path class="i" d="M208.15,230.89c45.81,5.72,69.59,34.15,81.73,58.71"/><path class="h" d="M407.69,299.25c-4.57,24.85-15.53,43.66-24.48,42.01-5.88-1.08-9.44-10.74-9.87-24.28-37.64,47.49-94.21,105.09-115.77,120.22-47.65,33.43-156.14,15.18-161.54-95.2-1.85-37.8,28.82-114.05,53.82-170.28-17.25,9.64-32.33,13.04-36.2,7.42-4.71-6.83,9.01-24.47,30.64-39.38,12.86-8.86,25.62-14.76,34.85-16.66,1.05-.22,2.05-.59,3-1.08,2.83-1.46,5.51-1.67,7.99-.4,8.96,4.6,14.2,28.01,16.93,59.54,1.18,13.59,1.9,28.68,2.27,44.43,.5,22.47,.28,46.28-.38,68.92-.37,12.69-.88,25.03-1.48,36.56-.16,3.01,3.14,4.95,5.7,3.36,18.72-11.65,40.14-24.43,61.78-36.56,14.7-8.25,29.5-16.19,43.62-23.28,17.19-8.62,33.35-15.95,47.11-21.01,18.76-6.88,33.01-9.53,39.22-5.35,3.59,2.41,5.58,35.93,2.8,51.04Z"/></g></svg>