<?xml version="1.0" encoding="UTF-8"?><svg xmlns="http://www.w3.org/2000/svg" viewBox="0 0 512 512"><defs><style>.h{fill:#375f24;}.h,.i{stroke:#fff;stroke-miterlimit:10;stroke-width:10px;}.i{fill:none;}</style></defs><g id="a"/><g id="b"><path class="h" d="M365.67,253.56c-13.76,5.06-29.92,12.39-47.11,21.01-14.12,7.09-28.92,15.03-43.62,23.28-24.03,13.47-47.78,27.74-67.87,40.36,.76-13.52,1.42-28.36,1.87-43.72,.66-22.64,.88-46.45,.38-68.92-.36-15.75-1.08-30.84-2.27-44.43,68.71-66.36,156.38-136.32,188.96-119.87,.67,.33,1.31,.7,1.93,1.11,.52,.34,1.02,.71,1.51,1.11,2.18,1.78,3.98,4.03,5.43,6.74,.88,1.64,1.63,3.43,2.25,5.36h0c10.54,32.64-12.84,107.92-41.47,177.95Z"/><path class="h" d="M318.56,274.57c-14.12,7.09-28.92,15.03-43.62,23.28-24.03,13.47-47.78,27.74-67.87,40.36,.76-13.52,1.42-28.36,1.87-43.72,.66-22.64,.88-46.45,.38-68.92,33.1-42.29,150.07-162.54,186.69-164.3,2.28-.11,4.24,.22,5.85,1.09,1.1,.56,2.04,1.38,2.8,2.44,.38,.52,.7,1.1,.98,1.73,1.06,2.32,1.54,5.37,1.48,9.07h0c-.48,36-50.17,132.39-88.58,198.97Z"/><path class="h" d="M404.89,70.24c-8.61,31.6-79.59,148.42-129.94,227.61-24.03,13.47-47.78,27.74-67.87,40.36,.76-13.52,1.42-28.36,1.87-43.72,3.96-7.09,8.1-13.95,12.36-20.45,1.38-2.11,2.78-4.18,4.18-6.2,27.64-39.77,145.32-188,173.97-204.35,.9-.52,1.7-.9,2.42-1.13,2.4-.82,3.76-.13,3.88,2.38,.03,.53,0,1.13-.09,1.79-.12,1.06-.39,2.3-.77,3.7Z"/><path class="i" d="M317.47,88.51c71.11,18.05,82.13,65.98,82.13,65.98"/><path class="i" d="M266.86,127.57c83.67,10.44,114.28,86.78,114.28,86.78"/><path class="i" d="M219.64,168.5c83.67,10.44,122.77,94.54,122.77,94.54"/><path class="i" d="M208.15,230.89c45.81,5.72,69.59,34.15,81.73,58.71"/><path class="h" d="M407.69,299.25c-4.57,24.85-15.53,43.66-24.48,42.01-5.88-1.08-9.44-10.74-9.87-24.28-37.64,47.49-94.21,105.09-115.77,120.22-47.65,33.43-156.14,15.18-161.54-95.2-1.85-37.8,28.82-114.05,53.82-170.28-17.25,9.64-32.33,13.04-36.2,7.42-4.71-6.83,9.01-24.47,30.64-39.38,12.86-8.86,25.62-14.76,34.85-16.66,1.05-.22,2.05-.59,3-1.08,2.83-1.46,5.51-1.67,7.99-.4,8.96,4.6,14.2,28.01,16.93,59.54,1.18,13.59,1.9,28.68,2.27,44.43,.5,22.47,.28,46.28-.38,68.92-.37,12.69-.88,25.03-1.48,36.56-.16,3.01,3.14,4.95,5.7,3.36,18.72-11.65,40.14-24.43,61.78-36.56,14.7-8.25,29.5-16.19,43.62-23.28,17.19-8.62,33.35-15.95,47.11-21.01,18.76-6.88,33.01-9.53,39.22-5.35,3.59,2.41,5.58,35.93,2.8,51.04Z"/></g><g id="c"/><g id="d"/><g id="e"/><g id="f"><g id="g"/></g></svg>