<?xml version="1.0" encoding="UTF-8"?><svg xmlns="http://www.w3.org/2000/svg" viewBox="0 0 513.61 513.61"><defs><style>.h{fill:#9fa2b4;}.h,.i{stroke:#375f24;stroke-miterlimit:10;stroke-width:10px;}.i{fill:#375f24;}</style></defs><g id="a"/><g id="b"/><g id="c"/><g id="d"/><g id="e"/><g id="f"><g id="g"/><path class="h" d="M206.1,134.51v54.65c0,5.81-4.74,10.56-10.56,10.56-2.91,0-5.54-1.19-7.45-3.11s-3.11-4.55-3.11-7.45v-44.09h-14.28c-5.81,0-10.56-4.74-10.56-10.56,0-2.91,1.19-5.54,3.11-7.45s4.55-3.11,7.45-3.11h24.84c1.45,0,2.83,.3,4.1,.83,.32,.14,.62,.29,.92,.45,.3,.16,.6,.34,.87,.53,.56,.39,1.09,.82,1.56,1.29s.91,1.01,1.29,1.56c.2,.27,.37,.57,.53,.87,.16,.3,.31,.6,.45,.92,.53,1.27,.83,2.65,.83,4.1Z"/><path class="h" d="M183.74,191.02l47.2-1.24,27.3-130.87c0-8.2,6.71-14.9,14.9-14.9h130.41c8.2,0,14.9,6.71,14.9,14.9l26.18,178.14c29.04,20.38,48.02,54.11,48.02,92.28,0,62.24-50.45,112.67-112.67,112.67-51.62,0-95.13-34.7-108.46-82.06l-112.75,1.19c.5,3.33,.75,6.74,.75,10.21,0,39.02-31.63,70.66-70.66,70.66s-70.66-31.63-70.66-70.66c0-23.13,11.1-43.66,28.28-56.55l3.89-106.9c0-8.2,6.71-14.9,14.9-14.9l118.47-1.97"/><circle class="h" cx="89.35" cy="371.11" r="70.79"/><circle class="h" cx="381.19" cy="332.21" r="109.92"/><circle class="i" cx="383.08" cy="331.98" r="37.88"/><circle class="i" cx="89.97" cy="370.49" r="20.49"/></g></svg>