<?xml version="1.0" encoding="UTF-8"?><svg xmlns="http://www.w3.org/2000/svg" viewBox="0 0 512 512"><defs><style>.h{fill:#375f24;stroke:#fff;stroke-miterlimit:10;stroke-width:10px;}</style></defs><g id="a"/><g id="b"/><g id="c"/><g id="d"/><g id="e"><path class="h" d="M328.45,339.88v81.5c0,8.82-7.15,15.97-15.97,15.97h-110.1c-8.82,0-15.97-7.15-15.97-15.97v-81.5c0-14.57,4.21-28.13,11.47-39.49,12.66-19.86,34.6-32.99,59.55-32.99s46.89,13.13,59.55,32.99c7.26,11.36,11.47,24.92,11.47,39.49Z"/><circle class="h" cx="256.99" cy="250.79" r="48.28"/><path class="h" d="M330.77,222.21c0,12.93-22.88,23.82-54.09,27.15-6.38,.68-13.12,1.04-20.07,1.04-8.06,0-15.82-.49-23.08-1.4-29.66-3.68-51.08-14.29-51.08-26.8,0-8.4,9.65-15.93,24.96-21.1,2.45-24.38,23.02-43.41,48.04-43.41s45.15,18.63,47.95,42.63c16.7,5.17,27.37,13.05,27.37,21.88Z"/><path class="h" d="M160.87,232v67.58c0,9.58-7.77,17.35-17.35,17.35H54.45c-9.58,0-17.35-7.77-17.35-17.35v-67.58c0-12.69,3.67-24.51,9.99-34.41,11.03-17.31,30.15-28.75,51.89-28.75s40.86,11.44,51.89,28.75c6.32,9.9,9.99,21.72,9.99,34.41Z"/><circle class="h" cx="98.6" cy="154.38" r="42.07"/><path class="h" d="M162.89,129.47c0,11.27-19.94,20.76-47.13,23.66-5.56,.59-11.43,.91-17.49,.91-7.02,0-13.79-.42-20.11-1.22-25.84-3.21-44.51-12.45-44.51-23.35,0-7.32,8.41-13.88,21.75-18.38,2.13-21.24,20.06-37.82,41.86-37.82s39.34,16.23,41.78,37.14c14.55,4.5,23.85,11.37,23.85,19.06Z"/><path class="h" d="M477.2,231.01v67.58c0,9.58-7.77,17.35-17.35,17.35h-89.07c-9.58,0-17.35-7.77-17.35-17.35v-67.58c0-12.69,3.67-24.51,9.99-34.41,11.03-17.31,30.15-28.75,51.89-28.75s40.86,11.44,51.89,28.75c6.32,9.9,9.99,21.72,9.99,34.41Z"/><circle class="h" cx="414.94" cy="153.38" r="42.07"/><path class="h" d="M479.22,128.48c0,11.27-19.94,20.76-47.13,23.66-5.56,.59-11.43,.91-17.49,.91-7.02,0-13.79-.42-20.11-1.22-25.84-3.21-44.51-12.45-44.51-23.35,0-7.32,8.41-13.88,21.75-18.38,2.13-21.24,20.06-37.82,41.86-37.82s39.34,16.23,41.78,37.14c14.55,4.5,23.85,11.37,23.85,19.06Z"/></g><g id="f"><g id="g"/></g></svg>